<svg width="190" height="175" viewBox="0 0 190 175" fill="none" xmlns="http://www.w3.org/2000/svg">
<g filter="url(#filter0_d_44_1547)">
<path d="M62.4187 115.82C61.6587 116.46 60.9387 116.95 60.2587 117.29C59.5987 117.63 58.9287 117.8 58.2487 117.8C57.5087 117.8 56.8987 117.59 56.4187 117.17C55.9587 116.73 55.7287 116.09 55.7287 115.25C55.7287 114.73 55.7887 114.22 55.9087 113.72C56.0487 113.2 56.2587 112.73 56.5387 112.31L54.6787 114.38C55.4787 113.78 56.2787 113.26 57.0787 112.82C57.8987 112.36 58.7287 111.96 59.5687 111.62C60.4287 111.26 61.2987 110.92 62.1787 110.6L63.4087 106.25C61.3887 106.93 59.6487 107.58 58.1887 108.2C56.7487 108.82 55.5487 109.44 54.5887 110.06C53.6287 110.66 52.8687 111.28 52.3087 111.92C51.7687 112.54 51.3787 113.2 51.1387 113.9C50.9187 114.6 50.8087 115.36 50.8087 116.18C50.8087 117.36 51.0687 118.39 51.5887 119.27C52.1287 120.13 52.8287 120.8 53.6887 121.28C54.5687 121.76 55.5387 122 56.5987 122C57.5787 122 58.4487 121.85 59.2087 121.55C59.9687 121.23 60.5987 120.85 61.0987 120.41C61.6187 119.97 61.9987 119.57 62.2387 119.21L62.4187 115.82ZM69.4087 122L70.0087 121.4V117.53H64.0087L66.1687 119.69V104.66H65.8387L60.8887 105.2V119.09L61.6687 117.86V122H69.4087ZM61.4287 102.98C60.7887 102.98 60.2287 102.77 59.7487 102.35C59.2887 101.93 59.0587 101.35 59.0587 100.61C59.0587 99.85 59.2887 99.27 59.7487 98.87C60.2287 98.45 60.7887 98.24 61.4287 98.24C62.1087 98.24 62.6787 98.45 63.1387 98.87C63.5987 99.27 63.8287 99.85 63.8287 100.61C63.8287 101.35 63.5987 101.93 63.1387 102.35C62.6787 102.77 62.1087 102.98 61.4287 102.98ZM55.9987 103.61C55.3387 103.61 54.7787 103.4 54.3187 102.98C53.8587 102.56 53.6287 101.98 53.6287 101.24C53.6287 100.48 53.8587 99.89 54.3187 99.47C54.7787 99.05 55.3387 98.84 55.9987 98.84C56.6587 98.84 57.2187 99.05 57.6787 99.47C58.1387 99.89 58.3687 100.48 58.3687 101.24C58.3687 101.98 58.1387 102.56 57.6787 102.98C57.2187 103.4 56.6587 103.61 55.9987 103.61ZM94.4292 122V117.53H106.969V121.4L106.369 122H94.4292ZM77.1192 117.53H95.2692C96.5292 117.53 97.4092 117.35 97.9092 116.99C98.4092 116.63 98.6592 116.09 98.6592 115.37C98.6592 114.77 98.5192 114.2 98.2392 113.66C97.9792 113.1 97.6692 112.64 97.3092 112.28L99.4992 112.46C98.6592 112.66 97.9392 112.81 97.3392 112.91C96.7392 113.01 96.1792 113.08 95.6592 113.12C95.1592 113.16 94.5992 113.18 93.9792 113.18H77.3892L79.0992 108.71H94.8792C95.8192 108.71 96.7392 108.69 97.6392 108.65C98.5592 108.59 99.3192 108.49 99.9192 108.35H100.279C100.779 108.81 101.279 109.39 101.779 110.09C102.299 110.77 102.739 111.52 103.099 112.34C103.459 113.16 103.639 113.99 103.639 114.83C103.639 115.75 103.439 116.62 103.039 117.44C102.659 118.26 101.989 119 101.029 119.66L100.099 121.31C99.5592 121.53 98.9392 121.7 98.2392 121.82C97.5392 121.94 96.7492 122 95.8692 122H77.1192V117.53ZM69.4092 117.53H74.9592L73.1892 118.34C72.9692 118.1 72.8092 117.7 72.7092 117.14C72.6092 116.56 72.5592 115.85 72.5592 115.01V108.2L77.5392 107.66H77.8392V119.72L75.7092 117.53H81.7992V121.4L81.1992 122H68.8092V118.13L69.4092 117.53ZM106.968 117.53H112.608L110.838 118.34C110.598 118.1 110.428 117.7 110.328 117.14C110.248 116.56 110.208 115.85 110.208 115.01V106.49L115.158 105.95H115.488V119.69L113.358 117.53H119.358V121.4L118.758 122H106.368V118.13L106.968 117.53ZM112.788 103.76C112.128 103.76 111.568 103.55 111.108 103.13C110.648 102.71 110.418 102.12 110.418 101.36C110.418 100.6 110.648 100.02 111.108 99.62C111.568 99.2 112.128 98.99 112.788 98.99C113.448 98.99 114.008 99.2 114.468 99.62C114.928 100.02 115.158 100.6 115.158 101.36C115.158 102.12 114.928 102.71 114.468 103.13C114.008 103.55 113.448 103.76 112.788 103.76ZM129.71 106.82C131.59 106.82 133.21 107.17 134.57 107.87C135.93 108.57 136.97 109.52 137.69 110.72C138.43 111.9 138.8 113.24 138.8 114.74C138.8 116.26 138.45 117.63 137.75 118.85C137.07 120.05 136.1 121.01 134.84 121.73C133.6 122.43 132.15 122.78 130.49 122.78C129.41 122.78 128.35 122.62 127.31 122.3C126.29 122 125.32 121.53 124.4 120.89C123.5 120.23 122.67 119.39 121.91 118.37L125.81 115.4C126.43 115.98 127.14 116.5 127.94 116.96C128.74 117.4 129.57 117.75 130.43 118.01C131.29 118.27 132.12 118.41 132.92 118.43C133.28 118.45 133.55 118.46 133.73 118.46C133.93 118.44 134.09 118.43 134.21 118.43L131.69 119.9C132.27 119.26 132.74 118.57 133.1 117.83C133.48 117.07 133.67 116.23 133.67 115.31C133.67 114.43 133.4 113.68 132.86 113.06C132.34 112.44 131.63 111.98 130.73 111.68C129.83 111.36 128.81 111.22 127.67 111.26L128.66 110.33C128.52 112.13 128.27 113.76 127.91 115.22C127.57 116.66 127.04 117.88 126.32 118.88C125.6 119.88 124.63 120.65 123.41 121.19C122.19 121.73 120.64 122 118.76 122V118.13L119.36 117.53C120.5 117.53 121.37 117.2 121.97 116.54C122.57 115.88 123.03 114.85 123.35 113.45C123.69 112.05 123.98 110.26 124.22 108.08L124.64 107.69C125.38 107.45 126.19 107.25 127.07 107.09C127.95 106.91 128.83 106.82 129.71 106.82ZM54.2538 159.83L50.8338 166.04H45.1938V165.71L51.1038 156.56L54.2538 159.83ZM67.9638 161C66.5838 161 65.4338 160.8 64.5138 160.4C63.5938 160 62.8138 159.39 62.1738 158.57C61.5338 157.75 60.9038 156.69 60.2838 155.39L58.0038 149.96L59.9838 150.47C59.1238 150.49 58.3338 150.63 57.6138 150.89C56.9138 151.13 56.3138 151.45 55.8138 151.85C55.3138 152.25 54.9238 152.71 54.6438 153.23C54.3838 153.73 54.2538 154.25 54.2538 154.79C54.2538 155.49 54.4438 156.08 54.8238 156.56C55.2238 157.02 55.7438 157.37 56.3838 157.61C57.0238 157.85 57.7038 157.97 58.4238 157.97C59.3038 157.97 60.1338 157.87 60.9138 157.67C61.7138 157.47 62.3538 157.25 62.8338 157.01L63.4338 157.31L62.2038 161.6C61.4038 161.94 60.5938 162.2 59.7738 162.38C58.9538 162.58 58.1938 162.68 57.4938 162.68C56.8338 162.68 56.1338 162.6 55.3938 162.44C54.6538 162.3 53.9138 162.05 53.1738 161.69C52.4538 161.35 51.7938 160.9 51.1938 160.34C50.6138 159.76 50.1438 159.05 49.7838 158.21C49.4438 157.37 49.2738 156.38 49.2738 155.24C49.2738 153.66 49.6138 152.28 50.2938 151.1C50.9938 149.92 51.9238 148.93 53.0838 148.13C54.2438 147.33 55.5338 146.73 56.9538 146.33C58.3738 145.93 59.8138 145.73 61.2738 145.73L61.8438 146.06L64.3338 152.63C64.8338 153.91 65.4238 154.88 66.1038 155.54C66.8038 156.2 67.6238 156.53 68.5638 156.53V160.4L67.9638 161ZM67.9596 161V157.13L68.5596 156.53H74.4396L72.6996 157.34C72.4596 157.1 72.2896 156.7 72.1896 156.14C72.0896 155.56 72.0396 154.85 72.0396 154.01V138.74L77.0196 138.2H77.3496V158.72L75.1896 156.53H81.2796V160.4L80.6796 161H67.9596ZM81.2744 156.53H88.7144L87.8444 159.32L85.8644 154.28C85.7244 153.92 85.5244 153.46 85.2644 152.9C85.0044 152.32 84.7144 151.73 84.3944 151.13C84.0744 150.51 83.7544 149.95 83.4344 149.45C83.1344 148.93 82.8644 148.54 82.6244 148.28L82.5344 147.95C83.3744 147.27 84.3144 146.66 85.3544 146.12C86.4144 145.58 87.5244 145.15 88.6844 144.83C89.8444 144.51 91.0144 144.35 92.1944 144.35C93.7744 144.35 95.1444 144.63 96.3044 145.19C97.4644 145.75 98.3544 146.53 98.9744 147.53C99.6144 148.51 99.9344 149.62 99.9344 150.86C99.9344 151.74 99.7544 152.6 99.3944 153.44C99.0544 154.28 98.5944 155.04 98.0144 155.72C97.4344 156.4 96.7944 156.94 96.0944 157.34L95.0144 156.53H102.454V160.4L101.854 161H80.6744V157.13L81.2744 156.53ZM92.3144 158.48L90.3644 157.55C91.1244 157.19 91.8544 156.76 92.5544 156.26C93.2544 155.76 93.8344 155.14 94.2944 154.4C94.7544 153.66 94.9844 152.77 94.9844 151.73C94.9844 150.69 94.6744 149.87 94.0544 149.27C93.4544 148.65 92.6544 148.34 91.6544 148.34C90.7944 148.34 90.0044 148.51 89.2844 148.85C88.5844 149.19 88.0144 149.51 87.5744 149.81L87.8144 148.34C88.2744 148.84 88.6444 149.34 88.9244 149.84C89.2244 150.34 89.5144 150.93 89.7944 151.61C90.0744 152.29 90.4044 153.16 90.7844 154.22L92.3144 158.48ZM106.972 156.53L108.202 161H101.182V157.13L101.782 156.53H106.972ZM122.662 161C121.302 161 120.162 160.8 119.242 160.4C118.322 160 117.532 159.39 116.872 158.57C116.232 157.75 115.612 156.69 115.012 155.39L112.702 149.96L114.502 150.47C113.682 150.49 112.932 150.63 112.252 150.89C111.572 151.13 110.982 151.45 110.482 151.85C109.982 152.25 109.602 152.71 109.342 153.23C109.082 153.73 108.952 154.25 108.952 154.79C108.952 155.49 109.152 156.08 109.552 156.56C109.952 157.02 110.472 157.37 111.112 157.61C111.752 157.85 112.422 157.97 113.122 157.97C114.002 157.97 114.832 157.87 115.612 157.67C116.412 157.47 117.052 157.25 117.532 157.01L118.132 157.31L116.902 161.6C116.102 161.94 115.292 162.2 114.472 162.38C113.672 162.58 112.912 162.68 112.192 162.68C111.552 162.68 110.852 162.6 110.092 162.44C109.352 162.3 108.622 162.05 107.902 161.69C107.182 161.35 106.522 160.9 105.922 160.34C105.342 159.76 104.872 159.05 104.512 158.21C104.152 157.37 103.972 156.38 103.972 155.24C103.972 153.66 104.312 152.28 104.992 151.1C105.692 149.92 106.622 148.93 107.782 148.13C108.942 147.33 110.232 146.73 111.652 146.33C113.092 145.93 114.542 145.73 116.002 145.73L116.572 146.06L119.062 152.63C119.542 153.91 120.132 154.88 120.832 155.54C121.532 156.2 122.342 156.53 123.262 156.53V160.4L122.662 161ZM122.657 161V157.13L123.257 156.53H128.807L127.067 157.34C126.827 157.1 126.657 156.7 126.557 156.14C126.477 155.56 126.437 154.85 126.437 154.01V138.71L131.387 138.17H131.717V155.42C131.717 155.82 131.717 156.32 131.717 156.92C131.737 157.5 131.757 158.08 131.777 158.66C131.817 159.22 131.877 159.68 131.957 160.04V160.28C131.357 160.52 130.627 160.7 129.767 160.82C128.907 160.94 127.847 161 126.587 161H122.657ZM136.467 138.74L141.897 138.2L141.987 138.44C141.907 138.8 141.847 139.25 141.807 139.79C141.787 140.33 141.767 140.88 141.747 141.44C141.747 142 141.747 142.48 141.747 142.88V161H136.467V138.74Z" fill="#4EAABF"/>
</g>
<path d="M117.312 69.8547L95 82.4054L72.6875 69.8547V56.5943L66.3125 53.0526V73.5828L95 89.7196L123.688 73.5828V53.0526L117.312 56.5943V69.8547Z" fill="#4EAABF"/>
<path d="M95 9.15948L50.375 32.2983V37.8235L95 62.6145L133.25 41.3652V58.9688H139.625V32.2983L95 9.15948ZM126.875 37.6141L120.5 41.1556L95 55.3231L69.5 41.1556L63.125 37.6141L58.7065 35.1593L95 16.3405L131.293 35.1593L126.875 37.6141Z" fill="#4EAABF"/>
<defs>
<filter id="filter0_d_44_1547" x="43.1938" y="98.24" width="104.793" height="75.8" filterUnits="userSpaceOnUse" color-interpolation-filters="sRGB">
<feFlood flood-opacity="0" result="BackgroundImageFix"/>
<feColorMatrix in="SourceAlpha" type="matrix" values="0 0 0 0 0 0 0 0 0 0 0 0 0 0 0 0 0 0 127 0" result="hardAlpha"/>
<feOffset dx="2" dy="4"/>
<feGaussianBlur stdDeviation="2"/>
<feComposite in2="hardAlpha" operator="out"/>
<feColorMatrix type="matrix" values="0 0 0 0 0 0 0 0 0 0 0 0 0 0 0 0 0 0 0.25 0"/>
<feBlend mode="normal" in2="BackgroundImageFix" result="effect1_dropShadow_44_1547"/>
<feBlend mode="normal" in="SourceGraphic" in2="effect1_dropShadow_44_1547" result="shape"/>
</filter>
</defs>
</svg>
