<svg width="431" height="406" viewBox="0 0 431 406" fill="none" xmlns="http://www.w3.org/2000/svg">
<g clip-path="url(#clip0_44_1363)" filter="url(#filter0_d_44_1363)">
<path opacity="0.18" d="M177.44 4.89762C210.009 -4.79101 247.517 -0.366493 274.3 20.55C298.647 39.6008 311.675 69.3996 331.891 92.8016C351.612 115.657 377.941 132.116 397.443 155.165C416.944 178.213 428.711 212.543 413.14 238.398C401.728 257.342 377.267 269.349 375.031 291.339C374.364 298.248 376.079 305.178 376.066 312.122C375.999 340.308 347.207 360.618 319.403 365.509C291.599 370.4 262.908 365.089 234.877 368.301C210.183 371.126 186.577 380.489 161.91 383.727C137.242 386.965 109.185 382.541 93.5075 363.257C81.6544 348.677 79.2051 328.607 69.8281 312.355C50.173 278.258 0.418143 259.014 2.04661 219.733C3.24793 191.234 31.9596 172.983 47.5435 149.101C66.798 119.542 67.7791 84.1924 94.1549 59.4245C117.414 37.5351 146.239 14.1731 177.44 4.89762Z" fill="#68E1FD"/>
<path opacity="0.57" d="M74.313 221.532C65.2497 226.483 56.193 232.86 52.242 242.382C46.6491 255.902 53.2965 271.875 63.8815 281.996C84.9848 302.173 117.187 303.986 146.406 304.039C190.401 304.123 234.374 302.86 278.325 300.247C291.753 299.448 305.381 298.482 318.049 293.937C335.401 287.707 349.677 275.233 363.372 262.906C370.173 256.789 377.174 250.298 380.344 241.729C386.671 224.644 375.572 205.893 362.017 193.706C340.427 174.449 312.42 163.921 283.47 164.18C282.216 168.178 286.601 171.51 290.398 173.263C302.518 178.846 315.519 182.698 326.778 189.868C338.037 197.038 347.681 208.605 347.855 221.932C348.095 239.75 332.004 253.357 316.073 261.386C279.132 280.004 236.492 283.409 195.113 283.676C170.145 283.855 144.597 282.909 121.291 273.947C116.366 272.055 111.08 269.283 109.472 264.258C108.277 260.547 109.438 256.489 111.06 252.93C113.669 247.33 117.397 242.322 122.016 238.213C126.634 234.104 132.045 230.981 137.916 229.035C145.925 226.43 154.889 225.964 161.656 220.966C166.995 217.021 170.486 207.226 164.533 202.642C159.133 198.484 143.309 201.675 137.169 202.268C115.132 204.401 93.7529 210.953 74.313 221.532Z" fill="white"/>
<path d="M42.5781 14.2331L133.392 50.7886C134.758 51.3396 135.928 52.2853 136.752 53.5046C137.576 54.7239 138.016 56.1611 138.017 57.632V212.317C138.017 213.539 137.713 214.742 137.133 215.818C136.552 216.894 135.713 217.809 134.691 218.48C133.668 219.152 132.495 219.56 131.276 219.667C130.056 219.774 128.829 219.577 127.705 219.094L34.9363 179.266C33.6005 178.686 32.4665 177.724 31.6768 176.501C30.8871 175.279 30.477 173.851 30.4981 172.396L32.4269 20.9831C32.4417 19.7837 32.7492 18.6059 33.3229 17.5519C33.8966 16.4979 34.7191 15.5995 35.7191 14.9346C36.719 14.2696 37.8664 13.8582 39.0616 13.736C40.2568 13.6137 41.4638 13.7844 42.5781 14.2331Z" fill="#68E1FD"/>
<path d="M36.6583 16.5653L127.425 53.1209C128.798 53.6648 129.977 54.6066 130.81 55.825C131.642 57.0434 132.09 58.4826 132.097 59.9576V214.649C132.096 215.871 131.791 217.073 131.21 218.147C130.629 219.222 129.79 220.137 128.768 220.808C127.746 221.48 126.573 221.888 125.355 221.995C124.136 222.103 122.91 221.908 121.786 221.426L29.0165 181.592C27.6755 181.015 26.5355 180.055 25.7398 178.832C24.9441 177.61 24.5284 176.18 24.5449 174.722L26.4737 23.3087C26.4874 22.1056 26.7957 20.9241 27.3717 19.8673C27.9476 18.8104 28.7738 17.9103 29.7781 17.2453C30.7824 16.5803 31.9344 16.1707 33.1336 16.0522C34.3328 15.9337 35.5429 16.1098 36.6583 16.5653ZM330.316 13.6734L420.015 49.7892C421.481 50.3783 422.738 51.3901 423.626 52.6955C424.514 54.001 424.992 55.5409 425 57.1189V210.578C425.004 211.896 424.68 213.195 424.057 214.357C423.433 215.519 422.53 216.508 421.429 217.235C420.327 217.962 419.062 218.404 417.747 218.522C416.431 218.639 415.108 218.428 413.894 217.907L322.307 178.547C320.861 177.926 319.632 176.891 318.775 175.574C317.917 174.256 317.469 172.715 317.488 171.144L319.404 20.9498C319.422 19.6611 319.755 18.3962 320.372 17.264C320.989 16.1319 321.872 15.1663 322.946 14.4504C324.019 13.7346 325.251 13.2898 326.535 13.1545C327.818 13.0191 329.116 13.1972 330.316 13.6734Z" fill="#68E1FD"/>
<path d="M324.976 16.8851L414.622 52.9876C416.094 53.5793 417.356 54.5972 418.245 55.9105C419.133 57.2239 419.608 58.7725 419.607 60.3574V213.789C419.612 215.108 419.288 216.407 418.664 217.569C418.041 218.731 417.138 219.72 416.036 220.447C414.935 221.174 413.669 221.616 412.354 221.734C411.039 221.851 409.715 221.64 408.502 221.119L316.907 181.805C315.462 181.184 314.233 180.15 313.377 178.832C312.52 177.514 312.074 175.973 312.095 174.402L314.004 24.2083C314.012 22.908 314.338 21.6294 314.956 20.4844C315.573 19.3394 316.461 18.3628 317.544 17.6402C318.627 16.9176 319.871 16.4709 321.166 16.3393C322.462 16.2076 323.77 16.3951 324.976 16.8851Z" fill="#68E1FD"/>
<path d="M36.6583 16.5653L127.425 53.1209C128.798 53.6648 129.977 54.6066 130.81 55.825C131.642 57.0434 132.09 58.4826 132.097 59.9576V214.649C132.096 215.871 131.791 217.073 131.21 218.147C130.629 219.222 129.79 220.137 128.768 220.808C127.746 221.48 126.573 221.888 125.355 221.995C124.136 222.103 122.91 221.908 121.786 221.426L29.0165 181.592C27.6755 181.015 26.5355 180.055 25.7398 178.832C24.9441 177.61 24.5284 176.18 24.5449 174.722L26.4737 23.3087C26.4874 22.1056 26.7957 20.9241 27.3717 19.8673C27.9476 18.8104 28.7738 17.9102 29.7781 17.2453C30.7824 16.5803 31.9344 16.1707 33.1336 16.0522C34.3328 15.9337 35.5429 16.1098 36.6583 16.5653Z" fill="url(#paint0_linear_44_1363)"/>
<path d="M324.976 16.8851L414.622 52.9876C416.094 53.5793 417.356 54.5972 418.245 55.9105C419.133 57.2239 419.608 58.7725 419.607 60.3574V213.789C419.612 215.108 419.288 216.407 418.664 217.569C418.041 218.731 417.138 219.72 416.036 220.447C414.935 221.174 413.669 221.616 412.354 221.734C411.039 221.851 409.715 221.64 408.502 221.119L316.907 181.805C315.462 181.184 314.233 180.15 313.377 178.832C312.52 177.514 312.074 175.973 312.095 174.402L314.004 24.2083C314.012 22.908 314.338 21.6294 314.956 20.4844C315.573 19.3394 316.461 18.3628 317.544 17.6402C318.627 16.9176 319.871 16.4709 321.166 16.3393C322.462 16.2076 323.77 16.3951 324.976 16.8851Z" fill="url(#paint1_linear_44_1363)"/>
<path d="M293.562 192.347L275.542 193.719L273.42 182.924C271.938 179.679 275.542 193.719 265.744 246.66L260.098 245.381L200.546 231.907L214.995 155.944L189.814 154.245L194.072 130.617L206.599 131.683C206.599 131.683 229.111 129.337 245.876 131.683C262.641 134.028 274.467 134.621 282.416 142.791C290.365 150.96 293.562 192.347 293.562 192.347Z" fill="#68E1FD"/>
<path d="M273.419 182.924C271.938 179.679 275.542 193.719 265.744 246.66L260.098 245.381L254.171 244.048C254.171 244.048 260.425 229.389 256.914 226.723C253.404 224.058 236.138 230.515 220.668 231.914C205.197 233.313 207.166 229.002 207.166 229.002C207.166 229.002 221.315 216.155 245.268 209.192C269.221 202.228 270.356 166.359 270.356 166.359L273.419 182.924Z" fill="url(#paint2_linear_44_1363)"/>
<path d="M236.532 135.194C236.532 135.194 251.642 135.821 257.275 131.323L261.993 133.948C261.993 133.948 260.705 142.971 253.317 144.17C245.929 145.369 236.519 144.963 236.532 135.194Z" fill="#68E1FD"/>
<path d="M236.532 135.194C236.532 135.194 251.642 135.821 257.275 131.323L261.993 133.948C261.993 133.948 260.705 142.971 253.317 144.17C245.929 145.369 236.519 144.963 236.532 135.194Z" fill="url(#paint3_linear_44_1363)"/>
<path d="M223.284 211.357L207.767 206.18C207.767 206.18 205.938 207.386 208.655 209.385C209.806 210.257 210.907 211.193 211.952 212.19L223.284 211.357Z" fill="url(#paint4_linear_44_1363)"/>
<path d="M237.6 128.764C237.94 126.099 238.074 123.147 239.789 121.041C240.849 119.899 242.117 118.969 243.527 118.303L254.826 112.039C256.201 111.279 257.695 110.493 259.251 110.706C259.629 110.738 259.99 110.877 260.292 111.106C261.046 111.726 260.926 112.899 260.739 113.865C259.591 119.689 258.436 125.512 257.275 131.336C257.02 132.988 256.547 134.6 255.867 136.127C254.933 137.849 253.534 139.275 251.829 140.243C250.125 141.211 248.182 141.683 246.223 141.605C243.019 141.423 240.01 140.015 237.82 137.673C235.284 135.014 237.186 132.063 237.6 128.764Z" fill="url(#paint5_linear_44_1363)"/>
<path d="M274.374 216.488C276.577 216.174 278.708 215.475 280.668 214.423C284.578 212.33 290.845 208.599 292.067 205.627C293.862 201.236 293.562 192.347 293.562 192.347L275.542 193.719C275.542 193.719 275.695 199.403 274.207 199.603C272.719 199.803 224.866 211.764 224.866 211.764C224.866 211.764 217.464 209.372 210.971 211.864C204.477 214.356 194.906 220.153 197.342 223.192C197.714 223.64 198.178 224.003 198.704 224.256C199.229 224.509 199.803 224.646 200.386 224.658C202.495 224.724 201.667 227.183 202.935 228.116C204.63 229.362 221.476 230.648 227.242 224.671C228.717 223.152 263.635 218.034 274.374 216.488Z" fill="url(#paint6_linear_44_1363)"/>
<path d="M194.072 130.61L191.082 147.169C188.2 145.104 185.174 143.249 182.025 141.618C176.726 138.873 164.346 104.303 164.346 104.303C164.346 104.303 163.044 98.1257 159.153 96.0267C155.262 93.9277 155.456 87.1443 155.456 84.9454C155.456 82.7531 153.454 79.3681 151.498 76.6828C149.543 73.9974 151.498 72.5914 151.498 72.5914C151.498 72.5914 156.55 77.3758 156.644 76.7827C156.737 76.1897 154.121 69.6395 152.64 67.9936C151.158 66.3478 151.245 63.6224 152.046 63.2226C152.846 62.8228 160.722 73.0912 160.722 73.0912C160.475 70.5143 159.834 67.9905 158.82 65.6081C157.225 62.1232 157.625 58.2317 158.82 58.8314C160.014 59.4311 165.013 70.8256 165.013 68.6467C165.013 66.4677 161.009 55.2465 164.212 56.4393C165.407 56.8857 166.708 59.1979 168.01 62.7429C170.179 68.68 172.328 78.0687 173.883 87.9639C176.386 103.723 194.072 130.61 194.072 130.61Z" fill="url(#paint7_linear_44_1363)"/>
<path d="M169.838 77.8689C169.838 77.8689 166.448 73.9508 163.945 74.4638C161.442 74.9769 164.446 79.0616 164.446 79.0616C164.446 79.0616 166.541 82.6532 165.547 85.1453C164.553 87.6374 163.852 93.2214 164.145 93.4213C164.439 93.6212 161.95 95.9201 159.253 90.0363C158.371 88.0852 157.078 86.3467 155.463 84.9388C155.463 82.7465 153.46 79.3615 151.505 76.6761C149.549 73.9907 151.505 72.5848 151.505 72.5848C151.505 72.5848 156.557 77.3691 156.651 76.7761C156.744 76.183 154.128 69.6329 152.646 67.987C151.164 66.3411 151.251 63.6158 152.052 63.216C152.853 62.8162 160.728 73.0845 160.728 73.0845C160.482 70.5077 159.84 67.9839 158.826 65.6015C157.231 62.1165 157.632 58.2251 158.826 58.8248C160.021 59.4245 165.02 70.819 165.02 68.64C165.02 66.4611 161.015 55.2399 164.219 56.4326C165.414 56.8791 166.715 59.1913 168.016 62.7362C168.043 62.7362 170.139 73.4777 169.838 77.8689Z" fill="url(#paint8_linear_44_1363)"/>
<path d="M290.071 359.719L265.744 376.45C262.094 369.401 275.542 356.127 275.542 356.127C275.542 356.127 254.852 323.576 246.783 301.827C240.637 285.328 238.107 268.21 228.463 268.35C225.4 268.396 221.622 270.182 216.777 274.28C196.661 291.272 202.995 348.977 202.995 348.977L196.988 352.376L172.848 365.969L171.827 360.165C170.866 347.158 188.552 340.981 188.552 340.981C188.552 340.981 186.49 312.681 188.552 284.342C190.615 256.002 200.566 231.907 200.566 231.907L254.192 244.041L262.014 245.807C261.573 301.354 289.604 358.819 290.064 359.705L290.071 359.719Z" fill="#3F3D56"/>
<path d="M266.105 99.0052C265.755 101.254 265.167 103.458 264.349 105.582C264.571 105.569 264.792 105.618 264.986 105.724C265.181 105.83 265.342 105.989 265.451 106.182C266.719 108.294 263.755 115.364 259.884 114.564C257.729 118.143 255.266 121.634 251.922 124.14C244.434 129.75 232.875 128.984 226.201 122.454C221.282 117.65 219.18 110.513 219.22 103.643C219.266 95.6469 221.422 82.9397 226.468 76.3762C231.513 69.8127 242.278 72.3382 248.899 74.5971C254.018 76.3429 259.184 78.7351 262.501 82.9997C265.951 87.4375 266.912 93.4479 266.105 99.0052Z" fill="url(#paint9_linear_44_1363)"/>
<path d="M220.668 67.7804C222.23 65.6481 221.576 62.7095 221.776 60.0775C222.016 56.9523 224.005 53.6739 227.115 53.1742C228.416 52.9609 229.745 53.2541 231.066 53.2408C233.736 53.2408 236.245 51.9081 238.761 50.9686C241.277 50.029 244.221 49.416 246.583 50.702C248.045 51.495 249.066 52.901 250.314 54.0337C252.207 55.6713 254.605 56.612 257.108 56.6991C259.11 56.7657 261.153 56.266 263.182 56.2527C265.21 56.2393 267.446 56.8524 268.521 58.5582C269.702 60.3773 269.228 62.7628 269.629 64.8951C269.929 66.4744 271.157 67.4539 272.539 68.2935C273.92 69.1331 275.455 69.8327 276.416 71.1254C276.918 71.8902 277.244 72.7568 277.37 73.6625C277.495 74.5682 277.418 75.4906 277.144 76.3629C276.585 78.1011 275.732 79.7307 274.621 81.1806C273.953 82.1601 273.199 83.2595 273.379 84.439C273.613 86.0115 275.295 86.8645 276.303 88.0905C276.73 88.6721 277.028 89.3384 277.176 90.0445C277.324 90.7507 277.319 91.4803 277.161 92.1842C277.003 92.8882 276.695 93.5502 276.26 94.1256C275.824 94.7011 275.27 95.1766 274.634 95.5203C273.807 95.9067 272.859 96.0733 272.165 96.6664C270.53 98.079 271.217 101.051 269.589 102.47C268.254 103.656 265.938 102.943 264.83 101.511C263.722 100.078 261.166 96.4331 260.906 94.6407C260.438 91.7488 262.034 90.456 260.038 88.3104C257.702 85.8116 254.145 84.9787 250.975 83.7127C247.057 82.1201 242.245 82.4466 238.367 80.7608C234.944 79.2681 229.972 77.7622 226.501 76.3762C223.031 74.9902 222.717 70.8922 220.668 67.7804Z" fill="#3F3D56"/>
<path d="M261.666 94.0276L270.343 99.405C270.343 99.405 267.78 106.622 265.738 107.401L255.099 102.823L261.666 94.0276Z" fill="#68E1FD"/>
<path d="M261.666 94.0276L270.343 99.405C270.343 99.405 267.78 106.622 265.738 107.401L255.099 102.823L261.666 94.0276Z" fill="url(#paint10_linear_44_1363)"/>
<path d="M221.202 67.9937C221.202 67.9937 209.709 68.1936 206.899 72.185C204.09 76.1763 201.38 89.4099 201.38 89.4099L240.637 106.635C240.637 106.635 245.829 108.9 250.321 105.695C254.812 102.49 262.567 99.8848 262.247 95.8001C261.927 91.7155 265.104 87.5375 258.71 84.3524C252.316 81.1673 225.44 76.7561 221.202 67.9937Z" fill="#68E1FD"/>
<path d="M221.202 67.9937C221.202 67.9937 209.709 68.1936 206.899 72.185C204.09 76.1763 201.38 89.4099 201.38 89.4099L240.637 106.635C240.637 106.635 245.829 108.9 250.321 105.695C254.812 102.49 262.567 99.8848 262.247 95.8001C261.927 91.7155 265.104 87.5375 258.71 84.3524C252.316 81.1673 225.44 76.7561 221.202 67.9937Z" fill="url(#paint11_linear_44_1363)"/>
<path d="M206.899 72.1849C206.899 72.1849 246.029 86.5779 247.678 87.9573C249.326 89.3366 246.777 99.505 244.381 104.436C241.985 109.367 237.867 107.408 237.867 107.408L202.381 93.5212C202.381 93.5212 200.078 92.0286 202.381 84.2524C204.684 76.4762 205.945 74.024 206.899 72.1849Z" fill="#68E1FD"/>
<path d="M206.899 72.1849C206.899 72.1849 246.029 86.5779 247.678 87.9573C249.326 89.3366 246.777 99.505 244.381 104.436C241.985 109.367 237.867 107.408 237.867 107.408L202.381 93.5212C202.381 93.5212 200.078 92.0286 202.381 84.2524C204.684 76.4762 205.945 74.024 206.899 72.1849Z" fill="url(#paint12_linear_44_1363)"/>
<path d="M200.839 80.9474C201.146 79.8679 202.942 78.8284 203.996 79.2215C212.506 82.4 245.435 95.3137 249.073 95.3137C253.244 95.3137 262.274 93.4813 262.274 93.4813C262.459 94.2431 262.459 95.0383 262.274 95.8001C261.933 96.6997 251.375 100.798 246.803 100.038C242.799 99.3717 209.956 88.1305 202.141 85.1986C201.213 84.8521 200.352 82.6932 200.619 81.7336L200.839 80.9474Z" fill="#68E1FD"/>
<path d="M200.839 80.9474C201.146 79.8679 202.942 78.8284 203.996 79.2215C212.506 82.4 245.435 95.3137 249.073 95.3137C253.244 95.3137 262.274 93.4813 262.274 93.4813C262.459 94.2431 262.459 95.0383 262.274 95.8001C261.933 96.6997 251.375 100.798 246.803 100.038C242.799 99.3717 209.956 88.1305 202.141 85.1986C201.213 84.8521 200.352 82.6932 200.619 81.7336L200.839 80.9474Z" fill="url(#paint13_linear_44_1363)"/>
<path d="M191.082 147.169H207.954C209.018 147.168 210.068 147.402 211.03 147.854C211.993 148.307 212.843 148.966 213.519 149.785C214.196 150.604 214.683 151.563 214.945 152.592C215.207 153.621 215.238 154.695 215.035 155.738L214.995 155.958L189.814 154.258L191.082 147.169Z" fill="url(#paint14_linear_44_1363)"/>
<path d="M290.065 359.705C255.313 323.21 254.172 244.041 254.172 244.041L261.994 245.807C261.573 301.354 289.604 358.819 290.065 359.705ZM228.463 268.35C225.4 268.396 221.622 270.182 216.777 274.28C196.661 291.272 202.995 348.977 202.995 348.977L196.989 352.376C191.956 322.137 191.649 296.136 207.113 275.4C213.206 267.17 227.536 268.25 228.463 268.35Z" fill="#25233A"/>
<path opacity="0.19" d="M109.092 353.035C106.869 357.24 106.048 362.417 102.418 365.496C98.7869 368.574 92.9538 368.761 89.7369 372.399C85.7325 376.944 88.302 384.62 93.3008 388.031C98.2997 391.443 104.713 391.776 110.76 391.99L274.981 397.847C286.427 398.253 298.894 398.353 308.004 391.43C319.143 382.974 320.685 364.556 311.074 354.388C315.953 353.975 321.032 353.488 325.217 350.943C329.401 348.397 332.345 343.113 330.603 338.542C328.393 332.765 320.825 331.619 314.632 331.506C273.56 330.753 234.336 339.768 193.705 341.847C171.34 342.98 122.293 328.054 109.092 353.035Z" fill="url(#paint15_linear_44_1363)"/>
<path opacity="0.57" d="M154.789 160.196C157.512 170.93 170.139 175.315 180.904 177.854C207.961 184.231 230.178 182.771 257.509 177.667C269.789 175.375 288.663 174.675 303.513 178.78C304.847 179.16 308.265 167.565 307.41 166.432C306.816 165.646 295.524 164.347 294.556 164.167C286.02 162.621 264.73 163.194 256.107 164.167C235.357 166.526 211.244 140.132 203.596 159.443C202.475 162.281 152.539 151.3 154.789 160.196Z" fill="white"/>
</g>
<defs>
<filter id="filter0_d_44_1363" x="0" y="0" width="431" height="406" filterUnits="userSpaceOnUse" color-interpolation-filters="sRGB">
<feFlood flood-opacity="0" result="BackgroundImageFix"/>
<feColorMatrix in="SourceAlpha" type="matrix" values="0 0 0 0 0 0 0 0 0 0 0 0 0 0 0 0 0 0 127 0" result="hardAlpha"/>
<feOffset dx="2" dy="4"/>
<feGaussianBlur stdDeviation="2"/>
<feComposite in2="hardAlpha" operator="out"/>
<feColorMatrix type="matrix" values="0 0 0 0 0 0 0 0 0 0 0 0 0 0 0 0 0 0 0.3 0"/>
<feBlend mode="normal" in2="BackgroundImageFix" result="effect1_dropShadow_44_1363"/>
<feBlend mode="normal" in="SourceGraphic" in2="effect1_dropShadow_44_1363" result="shape"/>
</filter>
<linearGradient id="paint0_linear_44_1363" x1="107.456" y1="386.812" x2="76.5727" y2="100.301" gradientUnits="userSpaceOnUse">
<stop offset="0.01"/>
<stop offset="0.99" stop-opacity="0"/>
</linearGradient>
<linearGradient id="paint1_linear_44_1363" x1="387.806" y1="320.404" x2="356.915" y2="33.8931" gradientUnits="userSpaceOnUse">
<stop offset="0.01"/>
<stop offset="0.99" stop-opacity="0"/>
</linearGradient>
<linearGradient id="paint2_linear_44_1363" x1="294.035" y1="225.684" x2="188.278" y2="173.389" gradientUnits="userSpaceOnUse">
<stop offset="0.01"/>
<stop offset="0.15" stop-opacity="0.48"/>
<stop offset="0.99" stop-opacity="0"/>
</linearGradient>
<linearGradient id="paint3_linear_44_1363" x1="276.129" y1="143.004" x2="233.567" y2="134.308" gradientUnits="userSpaceOnUse">
<stop offset="0.01"/>
<stop offset="0.99" stop-opacity="0"/>
</linearGradient>
<linearGradient id="paint4_linear_44_1363" x1="215.128" y1="209.165" x2="213.036" y2="211.334" gradientUnits="userSpaceOnUse">
<stop stop-color="#ECC4D7"/>
<stop offset="0.42" stop-color="#EFD4D1"/>
<stop offset="1" stop-color="#F2EAC9"/>
</linearGradient>
<linearGradient id="paint5_linear_44_1363" x1="249.627" y1="125.113" x2="257.946" y2="135.973" gradientUnits="userSpaceOnUse">
<stop stop-color="#ECC4D7"/>
<stop offset="0.83" stop-color="#F2EAC9"/>
</linearGradient>
<linearGradient id="paint6_linear_44_1363" x1="196.962" y1="210.758" x2="293.582" y2="210.758" gradientUnits="userSpaceOnUse">
<stop stop-color="#ECC4D7"/>
<stop offset="0.42" stop-color="#EFD4D1"/>
<stop offset="1" stop-color="#F2EAC9"/>
</linearGradient>
<linearGradient id="paint7_linear_44_1363" x1="150.631" y1="101.757" x2="194.072" y2="101.757" gradientUnits="userSpaceOnUse">
<stop stop-color="#ECC4D7"/>
<stop offset="0.42" stop-color="#EFD4D1"/>
<stop offset="1" stop-color="#F2EAC9"/>
</linearGradient>
<linearGradient id="paint8_linear_44_1363" x1="150.631" y1="75.1835" x2="169.872" y2="75.1835" gradientUnits="userSpaceOnUse">
<stop stop-color="#ECC4D7"/>
<stop offset="0.42" stop-color="#EFD4D1"/>
<stop offset="1" stop-color="#F2EAC9"/>
</linearGradient>
<linearGradient id="paint9_linear_44_1363" x1="263.896" y1="85.0853" x2="219.164" y2="112.028" gradientUnits="userSpaceOnUse">
<stop stop-color="#ECC4D7"/>
<stop offset="0.83" stop-color="#F2EAC9"/>
</linearGradient>
<linearGradient id="paint10_linear_44_1363" x1="265.791" y1="95.3204" x2="261.171" y2="104.582" gradientUnits="userSpaceOnUse">
<stop offset="0.01"/>
<stop offset="0.99" stop-opacity="0"/>
</linearGradient>
<linearGradient id="paint11_linear_44_1363" x1="198.256" y1="93.6012" x2="287.2" y2="78.0609" gradientUnits="userSpaceOnUse">
<stop offset="0.01"/>
<stop offset="0.99" stop-opacity="0"/>
</linearGradient>
<linearGradient id="paint12_linear_44_1363" x1="219.246" y1="105.222" x2="231.419" y2="72.3656" gradientUnits="userSpaceOnUse">
<stop offset="0.01"/>
<stop offset="0.99" stop-opacity="0"/>
</linearGradient>
<linearGradient id="paint13_linear_44_1363" x1="232.301" y1="85.0387" x2="229.114" y2="98.6477" gradientUnits="userSpaceOnUse">
<stop offset="0.01"/>
<stop offset="0.99" stop-opacity="0"/>
</linearGradient>
<linearGradient id="paint14_linear_44_1363" x1="206.305" y1="168.598" x2="199.545" y2="142.379" gradientUnits="userSpaceOnUse">
<stop offset="0.01"/>
<stop offset="0.99" stop-opacity="0"/>
</linearGradient>
<linearGradient id="paint15_linear_44_1363" x1="87.8014" y1="364.729" x2="331.137" y2="364.729" gradientUnits="userSpaceOnUse">
<stop stop-color="#183866"/>
<stop offset="1" stop-color="#1A7FC1"/>
</linearGradient>
<clipPath id="clip0_44_1363">
<rect width="423" height="398" fill="white" transform="translate(2)"/>
</clipPath>
</defs>
</svg>
